<?xml version="1.0" encoding="UTF-8" standalone="no" ?>
<!DOCTYPE svg PUBLIC "-//W3C//DTD SVG 1.1//EN" "http://www.w3.org/Graphics/SVG/1.1/DTD/svg11.dtd">
<svg xmlns="http://www.w3.org/2000/svg" xmlns:xlink="http://www.w3.org/1999/xlink" version="1.1" width="1080" height="1080" viewBox="0 0 1080 1080" xml:space="preserve">
<desc>Created with Fabric.js 5.2.4</desc>
<defs>
</defs>
<g transform="matrix(1 0 0 1 540 540)" id="9a7b4e2c-931e-4429-a69c-865e43a8c1c5"  >
<rect style="stroke: none; stroke-width: 1; stroke-dasharray: none; stroke-linecap: butt; stroke-dashoffset: 0; stroke-linejoin: miter; stroke-miterlimit: 4; fill: rgb(255,255,255); fill-rule: nonzero; opacity: 1; visibility: hidden;" vector-effect="non-scaling-stroke"  x="-540" y="-540" rx="0" ry="0" width="1080" height="1080" />
</g>
<g transform="matrix(1 0 0 1 540 540)" id="8d9a2577-fd3e-498c-b404-989db9d0786f"  >
</g>
<g transform="matrix(1 0 0 1 540 540)"  >
<g style="" vector-effect="non-scaling-stroke"   >
		<g transform="matrix(1 0 0 1 0 0)" id="svg_1"  >
<path style="stroke: none; stroke-width: 1; stroke-dasharray: none; stroke-linecap: butt; stroke-dashoffset: 0; stroke-linejoin: miter; stroke-miterlimit: 4; fill: rgb(128,128,128); fill-rule: nonzero; opacity: 1;" vector-effect="non-scaling-stroke"  transform=" translate(-511.05, -517.05)" d="M 493.08 139.79 C 493.51 139.72 493.94 139.69 494.38 139.67 C 525.89 137.64 557.3199999999999 143.79 588.27 148.82999999999998 L 693.8399999999999 166.36999999999998 L 814.8799999999999 185.47999999999996 C 847.1099999999999 190.46999999999997 880.1499999999999 194.37999999999997 911.5399999999998 203.34999999999997 C 930.1599999999999 208.65999999999997 948.8499999999999 217.05999999999997 963.4599999999998 229.83999999999997 C 989.5599999999998 252.68999999999997 998.3699999999998 284.72999999999996 1000.4499999999998 318.01 C 1001.2699999999999 331.21 1001.2099999999998 344.65 1001.2699999999999 357.87 C 1001.3499999999999 376.55 1002.5499999999998 397.32 997.6299999999999 415.44 C 994.9599999999999 425.27 990.7499999999999 433.22 983.9099999999999 440.82 C 994.2899999999998 456.18 994.1999999999998 473.62 995.1299999999999 491.48 C 998.1799999999998 495.90000000000003 1001.6399999999999 500.05 1004.6699999999998 504.5 C 1014.8699999999999 519.51 1021.0699999999998 536.17 1021.4799999999998 554.33 C 1021.7899999999997 568.1500000000001 1017.7199999999998 581.14 1017.5699999999998 594.84 C 1017.3199999999998 618.3000000000001 1017.5699999999998 641.62 1016.4999999999998 665.0600000000001 C 1014.4899999999998 708.8100000000001 1010.4399999999998 736.0600000000001 977.9599999999998 769.1300000000001 C 894.6799999999998 853.9700000000001 699.7199999999998 883.9200000000001 582.5899999999998 892.1500000000001 C 558.1299999999998 893.8700000000001 533.6699999999998 894.3800000000001 509.1499999999998 894.82 C 504.5199999999998 894.1400000000001 499.2799999999998 894.49 494.55999999999983 894.3900000000001 C 485.80999999999983 894.2700000000001 477.0699999999998 893.8100000000001 468.35999999999984 893.0500000000001 C 422.79999999999984 888.94 379.3799999999998 879.6400000000001 337.04999999999984 862.45 C 314.53999999999985 867.38 285.9399999999998 867.98 265.51999999999987 856.33 C 256.39999999999986 851.12 248.51999999999987 844.0300000000001 239.52999999999986 838.57 C 233.24999999999986 840.3900000000001 226.84999999999985 841.8100000000001 220.38999999999987 842.82 C 184.60999999999987 848.5100000000001 150.01999999999987 839.87 120.69999999999987 818.7600000000001 C 96.88999999999987 801.6000000000001 77.68999999999988 775.9700000000001 71.13999999999987 747.3100000000001 C 68.95999999999987 737.73 68.51999999999987 727.34 62.82999999999987 718.9300000000001 C 57.90999999999987 711.69 50.78999999999987 706.6800000000001 43.78999999999987 701.59 C 24.139999999999873 687.32 8.419999999999874 672.6800000000001 4.539999999999871 647.8100000000001 C 2.359999999999871 633.83 2.7399999999998714 619.2600000000001 2.2399999999998714 605.1200000000001 C 1.5199999999998715 585.0900000000001 -1.7400000000001286 554.5200000000001 3.5999999999998717 535.7100000000002 C 6.509999999999872 525.4500000000002 12.609999999999872 516.6400000000001 19.85999999999987 508.89000000000016 C 24.53999999999987 503.91000000000014 29.599999999999874 499.29000000000013 34.99999999999987 495.09000000000015 C 41.839999999999876 489.8000000000001 50.50999999999987 485.25000000000017 55.60999999999987 478.26000000000016 C 55.76999999999987 478.0500000000002 55.90999999999987 477.84000000000015 56.059999999999874 477.63000000000017 C 57.449999999999875 455.58000000000015 40.39999999999988 416.6800000000002 33.669999999999874 393.95000000000016 C 30.269999999999875 382.20000000000016 28.039999999999875 370.16000000000014 27.009999999999874 358.00000000000017 C 23.869999999999873 322.1100000000002 31.809999999999874 285.02000000000015 55.82999999999987 257.02000000000015 C 63.599999999999866 247.96000000000015 72.87999999999987 241.89000000000016 81.83999999999988 234.24000000000015 C 84.95999999999988 231.58000000000015 87.49999999999987 228.08000000000015 90.83999999999988 225.69000000000014 C 93.21999999999987 223.99000000000015 96.15999999999988 222.73000000000013 98.85999999999987 221.61000000000013 C 120.55999999999987 212.58000000000013 148.37999999999988 208.55000000000013 171.50999999999988 203.80000000000013 L 272.9799999999999 182.77000000000012 C 300.2699999999999 177.33000000000013 327.4799999999999 171.5000000000001 354.6099999999999 165.27000000000012 C 400.8499999999999 154.65000000000012 445.6299999999999 143.80000000000013 493.0899999999999 139.80000000000013 L 493.0799999999999 139.79000000000013 z M 91.55000000000001 249.76999999999998 C 65.21000000000001 270.2 49.59000000000001 291.87 45.59000000000001 325.32 C 41.90000000000001 356.17 49.63000000000001 385.76 59.33000000000001 414.8 C 63.97000000000001 428.64 68.95000000000002 442.39 71.9 456.71000000000004 C 78.08000000000001 486.76000000000005 72.02000000000001 533.47 91.45 557.62 C 105.33 574.88 129.83 586.87 149.88 595.96 C 220.8 628.11 302.59000000000003 647.02 380.04999999999995 655.4000000000001 C 407.06999999999994 658.33 434.15999999999997 659.5000000000001 461.3299999999999 660.2300000000001 C 473.24999999999994 660.5500000000002 486.3299999999999 659.0700000000002 498.0399999999999 660.8400000000001 C 515.0099999999999 663.4100000000002 533.8799999999999 673.9800000000001 551.4999999999999 677.7700000000001 C 537.7399999999999 677.6500000000001 524.0199999999999 678.1500000000001 510.26999999999987 678.2700000000001 C 482.4999999999999 678.5600000000001 454.71999999999986 678.1800000000001 426.97999999999985 677.1600000000001 C 397.7599999999999 675.84 368.3199999999998 672.2900000000001 339.41999999999985 667.8500000000001 C 274.65999999999985 657.8800000000001 209.69999999999985 642.6000000000001 149.89999999999984 615.5400000000002 C 126.77999999999983 605.0900000000001 100.97999999999983 594.1200000000002 82.94999999999983 575.9800000000002 C 62.59999999999983 555.5000000000002 60.09999999999983 527.6100000000002 59.30999999999983 500.3900000000002 C 45.09999999999983 509.4000000000002 24.649999999999835 523.2700000000002 20.799999999999834 540.7200000000003 C 18.909999999999833 549.2900000000003 22.089999999999833 557.3700000000002 26.919999999999835 564.3600000000002 C 37.59999999999984 579.8200000000003 54.73999999999984 590.0500000000003 71.07999999999983 598.8100000000003 C 76.72999999999983 601.8300000000003 82.65999999999983 604.6200000000002 88.01999999999983 608.1200000000002 C 82.43999999999983 611.8000000000002 77.04999999999983 615.9800000000002 71.37999999999982 619.4800000000002 C 54.919999999999824 613.3500000000003 32.77999999999982 595.5500000000003 19.639999999999823 583.8400000000003 C 19.78999999999982 593.8700000000002 20.209999999999823 603.8900000000002 20.349999999999824 613.9200000000003 C 20.619999999999823 635.5700000000003 19.729999999999823 656.2400000000004 36.599999999999824 672.4200000000003 C 49.81999999999982 685.1100000000004 67.94999999999982 693.5500000000003 78.11999999999983 709.1200000000003 C 87.48999999999984 723.4400000000004 86.80999999999983 740.5800000000004 92.43999999999983 756.2200000000004 C 107.61999999999983 798.4400000000004 156.78999999999982 827.5100000000003 201.2699999999998 826.6700000000004 C 207.75999999999982 826.5000000000005 214.2199999999998 825.5900000000004 220.4999999999998 823.9800000000004 C 228.1599999999998 821.9800000000004 236.0699999999998 817.5800000000004 244.1099999999998 818.2600000000003 C 251.42999999999978 818.8700000000003 257.06999999999977 824.4600000000004 263.5599999999998 827.3300000000004 C 272.6099999999998 831.3400000000004 281.87999999999977 834.7800000000004 291.57999999999976 836.9000000000004 C 305.37999999999977 839.9000000000004 319.7999999999997 838.8100000000004 333.45999999999975 841.9400000000004 C 342.91999999999973 844.1000000000004 351.46999999999974 849.1200000000003 360.4899999999998 852.4900000000004 C 372.7899999999998 857.0900000000004 385.9299999999998 860.4500000000004 398.64999999999975 863.6600000000003 C 435.88999999999976 873.0700000000003 475.3699999999998 876.4300000000003 513.7399999999998 876.2300000000004 C 527.8099999999998 876.1600000000003 542.0199999999998 874.8600000000004 556.0599999999998 875.0200000000003 C 669.6199999999999 869.4900000000004 815.8699999999999 848.6700000000003 914.7499999999998 792.4400000000003 C 934.8299999999998 781.0100000000003 954.4599999999998 767.7200000000003 970.1299999999998 750.7000000000003 C 978.1599999999997 741.9800000000002 985.0699999999998 731.9000000000003 989.4699999999998 720.9200000000003 C 1000.8199999999998 692.6100000000004 999.1399999999998 644.8000000000003 1000.5299999999997 613.6100000000004 C 986.4399999999997 628.1300000000003 970.6999999999997 640.5800000000004 952.8799999999998 650.3900000000003 C 947.7099999999998 653.2300000000004 942.2899999999997 655.4800000000004 937.0999999999998 658.2300000000004 L 937.2099999999998 690.7500000000003 C 937.2399999999998 696.9000000000003 937.8199999999998 703.5000000000003 936.9299999999998 709.5900000000004 C 936.6599999999999 711.4700000000004 935.9999999999999 712.9700000000004 935.1099999999998 714.6600000000004 C 925.6399999999998 721.1000000000005 874.8799999999998 748.5100000000004 865.9699999999998 747.5300000000004 C 864.0499999999998 747.3100000000004 862.3199999999998 745.9800000000005 861.2999999999998 744.4200000000004 C 858.0899999999998 739.4800000000004 859.9899999999999 697.4300000000004 859.7299999999998 688.4100000000004 C 805.0499999999998 702.3900000000004 751.6999999999998 713.7100000000004 695.6299999999998 720.9900000000005 C 677.4199999999997 723.3500000000005 658.7799999999997 726.1000000000005 640.4299999999997 726.5700000000005 C 640.4099999999997 740.5000000000005 642.9999999999998 763.3900000000006 638.6599999999997 776.2000000000005 L 638.0799999999997 776.7300000000005 C 635.5499999999997 778.9600000000005 633.6399999999996 780.0700000000005 630.3099999999997 780.7100000000005 C 621.0399999999997 782.5100000000004 604.2399999999997 782.1300000000005 594.2899999999997 782.5500000000005 C 579.2599999999998 783.1800000000005 563.3999999999997 785.1100000000005 548.4099999999997 784.0900000000005 C 545.7699999999998 783.9000000000004 544.6599999999997 783.7700000000004 542.9499999999997 781.7100000000005 C 541.5999999999997 780.0900000000005 540.7999999999997 777.9200000000005 540.4699999999997 775.8800000000005 C 539.3499999999997 768.8900000000004 539.6299999999997 730.2800000000004 540.7599999999996 723.2400000000005 C 541.1299999999997 720.9100000000004 541.6199999999997 718.0300000000004 543.5999999999997 716.4900000000005 C 545.9799999999997 714.6400000000004 549.8699999999997 714.1800000000005 552.8199999999997 713.8700000000005 C 564.6199999999997 712.6400000000004 576.7299999999997 712.9300000000004 588.5999999999997 712.3500000000005 C 613.1799999999997 711.1400000000004 637.7399999999997 709.3800000000005 662.2399999999997 707.0600000000005 C 751.2299999999997 697.8400000000005 895.2599999999996 672.9900000000005 966.5599999999997 619.5000000000005 C 983.1799999999997 607.0300000000004 998.6399999999998 591.3100000000004 1002.8199999999997 570.4100000000004 C 1008.0799999999997 544.1700000000004 996.2299999999997 534.1300000000005 992.0699999999997 511.2300000000004 C 989.3299999999997 534.5600000000004 983.1199999999997 550.2800000000004 963.9499999999997 565.2800000000004 C 943.7099999999997 581.1100000000005 917.3299999999997 587.1100000000005 893.7899999999997 596.3500000000005 C 884.0999999999997 600.1600000000004 874.7799999999997 605.0000000000005 865.1499999999997 609.0100000000004 C 850.1499999999997 615.2700000000004 834.5899999999998 620.5600000000004 819.0399999999997 625.3200000000004 C 755.3499999999997 644.7700000000004 688.6399999999998 651.0000000000003 622.2299999999998 652.0100000000004 C 598.6999999999998 652.3600000000005 574.7999999999998 652.5100000000004 551.3999999999997 649.7600000000004 C 530.3099999999997 647.2800000000004 510.1199999999998 638.8700000000005 496.70999999999975 622.0900000000005 C 486.3099999999998 608.8800000000005 481.70999999999975 592.1100000000005 483.93999999999977 575.5200000000004 C 485.96999999999974 559.8000000000004 495.33999999999975 545.1300000000005 508.02999999999975 535.6000000000005 C 516.6899999999997 529.1300000000005 526.5699999999997 524.7100000000005 537.3899999999998 523.3800000000005 C 553.6699999999997 521.3800000000005 570.8199999999997 523.3400000000005 587.2299999999998 523.6300000000005 C 611.8999999999997 524.0800000000005 636.8499999999998 523.8800000000005 661.4899999999998 522.4700000000005 C 694.4799999999998 520.5700000000005 727.0899999999998 515.9300000000005 759.5899999999998 510.2800000000005 C 773.5299999999999 507.86000000000047 787.5199999999998 505.56000000000046 801.3199999999998 502.5100000000005 C 814.8299999999998 499.5300000000005 828.2399999999998 495.5700000000005 841.5199999999999 491.7400000000005 C 880.6699999999998 480.41000000000054 939.9799999999999 462.1400000000005 967.1199999999999 430.6200000000005 C 975.7799999999999 420.5600000000005 979.9699999999999 408.6900000000005 981.8799999999999 395.7500000000005 C 983.9099999999999 381.9400000000005 983.1699999999998 367.5800000000005 983.0699999999999 353.6500000000005 C 982.8199999999999 320.3900000000005 984.56 285.3400000000005 962.9899999999999 257.3000000000005 C 952.8499999999999 244.12000000000052 938.7799999999999 234.16000000000054 923.4499999999999 227.66000000000054 C 919.0799999999999 245.31000000000054 905.02 255.69000000000054 889.91 264.72000000000054 C 850.15 288.4900000000005 798.92 301.1800000000005 753.71 310.6900000000005 C 685.21 325.0900000000005 609.94 333.9700000000005 539.94 333.1100000000005 C 473.1700000000001 332.3000000000005 406.95000000000005 322.21000000000055 341.33000000000004 310.7400000000005 C 282.74 300.5500000000005 224.48000000000005 288.54000000000053 166.66000000000005 274.7000000000005 C 141.53000000000006 268.5600000000005 114.34000000000006 262.3600000000005 91.55000000000005 249.7700000000005 z M 900.22 492.74 C 891.33 494.21000000000004 884.96 498.22 879.76 505.5 C 870.65 518.23 867.47 535.86 870.17 551.08 C 871.38 557.9100000000001 874.26 564.61 880.24 568.63 C 883.3100000000001 570.68 886.39 571.4 890.04 571.68 C 899.01 569.8399999999999 905.03 566.28 910.14 558.6899999999999 C 919.01 545.4899999999999 921.63 526.01 918.27 510.67999999999995 C 917 504.8299999999999 914.53 498.34999999999997 909.29 494.90999999999997 C 906.39 493.01 903.63 492.64 900.2199999999999 492.74999999999994 L 900.2199999999999 492.73999999999995 z M 558.08 731.49 C 557.97 742.76 558.48 754.12 557.97 765.39 C 561.95 765.1899999999999 565.94 765.08 569.9100000000001 764.79 C 587.46 764.5 605.1500000000001 762.16 622.6700000000001 762.4699999999999 C 621.8700000000001 751.3199999999999 622.2700000000001 739.7699999999999 622.71 728.6099999999999 L 612.39 728.9399999999999 C 594.38 729.93 576.11 731.43 558.0799999999999 731.4899999999999 z M 877.25 683.25 C 877.17 691.18 876.31 718.88 877.92 724.61 C 891.99 718 905.4599999999999 710.11 919.68 703.82 C 919.7399999999999 697.8000000000001 921.01 671.2 919.17 667.26 C 905.3 672.86 891.4399999999999 678.52 877.24 683.26 L 877.25 683.25 z M 939.5 550.4 C 947.29 549.75 952.89 547.14 957.96 541.1 C 969.47 527.4 972.2900000000001 503.22 970.47 486.16 C 969.85 480.35 968.24 472.70000000000005 963.5500000000001 468.77000000000004 C 961.71 467.22 959.83 466.66 957.44 466.74000000000007 C 957.37 466.74000000000007 957.3100000000001 466.76000000000005 957.23 466.77000000000004 C 948.84 467.57000000000005 942.35 471.43000000000006 937.03 477.79 C 926.26 490.66 922.79 511.44 924.47 527.64 C 925.23 534.9399999999999 927.52 543.11 933.72 547.74 C 935.48 549.0600000000001 937.4 549.78 939.49 550.4 L 939.5 550.4 z M 876.79 584.21 C 865.9 577.38 859.39 569.6 856.5999999999999 556.9300000000001 C 854.04 545.32 855.3399999999999 531.6200000000001 858.7699999999999 520.2700000000001 C 859.9599999999999 516.3000000000001 865.3999999999999 506.9900000000001 864.9799999999999 503.7700000000001 L 864.3999999999999 503.6600000000001 C 849.3499999999999 508.5400000000001 833.9299999999998 512.47 818.5999999999999 516.3600000000001 C 771.2499999999999 528.8700000000001 722.8 536.9200000000001 673.9099999999999 540.3900000000001 C 684.3399999999998 551.9300000000001 688.1699999999998 567.2700000000001 687.3599999999999 582.5100000000001 C 686.4699999999999 598.5200000000001 679.1299999999999 613.5000000000001 666.9499999999999 624.1100000000001 C 663.81 626.8800000000001 660.39 629.3900000000001 656.9499999999999 631.8000000000002 C 660.6999999999999 631.6600000000002 664.4399999999999 631.4600000000002 668.18 631.1900000000002 C 677.9499999999999 630.3100000000002 687.77 629.4200000000002 697.5699999999999 628.8400000000001 C 705.15 628.4000000000001 712.79 628.3000000000002 720.3199999999999 627.4100000000002 C 765.15 622.1000000000003 836.56 604.6000000000003 876.78 584.2000000000002 L 876.79 584.2100000000002 z M 628.62 542.25 C 606.61 543.49 589.77 562.1 591.02 583.83 C 592.27 605.5600000000001 611.1 622.1800000000001 633.12 620.97 C 655.16 619.76 672.02 601.14 670.78 579.38 C 669.54 557.63 650.65 540.99 628.62 542.25 z M 543.56 542.66 C 521.2099999999999 545.63 505.53999999999996 565.93 508.55999999999995 587.97 C 511.5799999999999 610.03 532.17 625.48 554.51 622.48 C 576.83 619.49 592.46 599.2 589.4399999999999 577.1800000000001 C 586.42 555.1400000000001 565.89 539.7 543.56 542.6600000000001 z M 905.8899999999999 222.24999999999994 C 887.8599999999999 215.91999999999993 868.3999999999999 213.58999999999995 849.5999999999999 210.51999999999995 L 786.17 199.86999999999995 L 633.63 175.04999999999995 C 604.07 170.28999999999996 574.41 164.57999999999996 544.68 160.96999999999994 C 531.5799999999999 159.37999999999994 510.12999999999994 156.81999999999994 497.29999999999995 158.63999999999993 C 434.43999999999994 162.93999999999994 366.0799999999999 182.33999999999992 304.10999999999996 195.32999999999993 L 190.61999999999995 219.20999999999992 C 164.50999999999993 224.69999999999993 138.24999999999994 229.50999999999993 112.67999999999995 237.12999999999994 C 140.05999999999995 249.73999999999995 178.78999999999996 258.0999999999999 208.50999999999993 265.0999999999999 C 289.3599999999999 284.4799999999999 371.28999999999996 299.1499999999999 453.87999999999994 309.0599999999999 C 468.4699999999999 310.76999999999987 483.23999999999995 312.3199999999999 497.88999999999993 313.1699999999999 C 506.69999999999993 313.6799999999999 515.56 313.4399999999999 524.3299999999999 314.4199999999999 C 537.4999999999999 316.1299999999999 561.06 314.7099999999999 574.93 314.13999999999993 C 596.2099999999999 313.2899999999999 617.39 312.1599999999999 638.5799999999999 309.85999999999996 C 705.5699999999999 302.61999999999995 839.3399999999999 280.19999999999993 891.1299999999999 240.77999999999997 C 897.8599999999999 235.65999999999997 902.7899999999998 230.14999999999998 905.8999999999999 222.23999999999998 L 905.8899999999999 222.24999999999997 z" stroke-linecap="round" />
</g>
		<g transform="matrix(1 0 0 1 -290.15 13.25)" id="svg_2"  >
<path style="stroke: none; stroke-width: 1; stroke-dasharray: none; stroke-linecap: butt; stroke-dashoffset: 0; stroke-linejoin: miter; stroke-miterlimit: 4; fill: rgb(128,128,128); fill-rule: nonzero; opacity: 1;" vector-effect="non-scaling-stroke"  transform=" translate(-220.9, -530.29)" d="M 160.59 461.15 C 165.72 460.65999999999997 171.43 462.10999999999996 176.37 463.31 C 195.46 467.92 214.08 474.73 232.93 480.27 C 248.93 484.97999999999996 268.07 488.78999999999996 283.12 495.4 C 296.97 501.37 307.77 512.64 313.06 526.61 C 318.86 542 318.19 559.03 311.21 573.9300000000001 C 305.26 586.6700000000001 295.33 593.36 282.31 598.0200000000001 C 281.36 598.2600000000001 280.4 598.4700000000001 279.45 598.6700000000001 C 272.22999999999996 600.1300000000001 264.78999999999996 599.5600000000001 257.59 598.2500000000001 C 241.96999999999997 595.4100000000001 227.17999999999998 589.5500000000001 212.07999999999998 584.8600000000001 C 192.89999999999998 578.9100000000001 170.19 575.2300000000001 153.30999999999997 564.1500000000001 C 138.54999999999998 554.4800000000001 129.66999999999996 538.6300000000001 126.23999999999998 521.7400000000001 C 123.31999999999998 507.3600000000001 124.58999999999997 489.6300000000001 133.17 477.21000000000015 C 139.73999999999998 467.71000000000015 149.41 463.20000000000016 160.57999999999998 461.14000000000016 L 160.58999999999997 461.15000000000015 z M 193.54000000000002 559.64 C 201.60000000000002 557.86 208.29000000000002 554.87 212.97000000000003 547.77 C 218.97000000000003 538.67 219.92000000000002 526.1 217.52000000000004 515.71 C 214.87000000000003 504.09000000000003 207.60000000000005 494.02000000000004 197.34000000000003 487.77000000000004 C 189.85000000000002 483.23 181.83000000000004 481.42 173.08000000000004 482.18000000000006 C 164.59000000000003 484.63000000000005 157.55000000000004 489.39000000000004 153.09000000000003 497.1000000000001 C 147.76000000000002 506.3200000000001 147.20000000000005 518.7800000000001 150.11000000000004 528.82 C 153.31000000000003 539.84 160.29000000000005 549.6700000000001 170.58000000000004 555.22 C 177.87000000000003 559.1600000000001 185.33000000000004 560.19 193.54000000000005 559.63 L 193.54000000000005 559.64 z M 267.69000000000005 580.75 C 276.9200000000001 577.92 284.4200000000001 573.52 289.1700000000001 564.77 C 294.4800000000001 554.98 295.0400000000001 542.76 291.7100000000001 532.26 C 288.4400000000001 521.9399999999999 281.61000000000007 512.68 271.7600000000001 507.67 C 265.6500000000001 504.56 258.7500000000001 503.23 251.8900000000001 503.83000000000004 C 243.6500000000001 505.14000000000004 236.6200000000001 508.53000000000003 231.6400000000001 515.38 C 224.7800000000001 524.84 223.3700000000001 538.2 225.4000000000001 549.41 C 227.2600000000001 559.66 233.5300000000001 568.43 242.2400000000001 574.23 C 250.1000000000001 579.46 258.3200000000001 580.98 267.6900000000001 580.75 z" stroke-linecap="round" />
</g>
		<g transform="matrix(1 0 0 1 -327.02 4.34)" id="svg_3"  >
<path style="stroke: none; stroke-width: 1; stroke-dasharray: none; stroke-linecap: butt; stroke-dashoffset: 0; stroke-linejoin: miter; stroke-miterlimit: 4; fill: rgb(128,128,128); fill-rule: nonzero; opacity: 1;" vector-effect="non-scaling-stroke"  transform=" translate(-184.03, -521.39)" d="M 173.21 490.5 C 179.48000000000002 489.64 185.8 490.46 191.52 493.17 C 200.29000000000002 497.34000000000003 206.97 505.86 209.99 514.9 C 212.72 523.01 212.69 533.03 208.56 540.67 C 205.24 546.8299999999999 199.95 550.41 193.32 552.36 C 186.94 553.04 181.16 552.39 175.34 549.57 C 167.04 545.5400000000001 161.01 537.9100000000001 158.2 529.2900000000001 C 155.32 520.4300000000001 155.23999999999998 509.49000000000007 159.73999999999998 501.1400000000001 C 162.77999999999997 495.4800000000001 167.18999999999997 492.4600000000001 173.20999999999998 490.5100000000001 L 173.20999999999998 490.5000000000001 z" stroke-linecap="round" />
</g>
		<g transform="matrix(1 0 0 1 -252.05 25.44)" id="svg_4"  >
<path style="stroke: none; stroke-width: 1; stroke-dasharray: none; stroke-linecap: butt; stroke-dashoffset: 0; stroke-linejoin: miter; stroke-miterlimit: 4; fill: rgb(128,128,128); fill-rule: nonzero; opacity: 1;" vector-effect="non-scaling-stroke"  transform=" translate(-259, -542.48)" d="M 255.6 511.2 C 262.18 511.4 268.76 513.98 273.88 518.02 C 281.11 523.72 285.76 532.5 286.77 541.54 C 287.71 549.91 285.46 558.8499999999999 279.90999999999997 565.3499999999999 C 275.52 570.4799999999999 269.65999999999997 573.2199999999999 262.93999999999994 573.7699999999999 C 256.12999999999994 573.5499999999998 250.12999999999994 571.3299999999998 244.83999999999995 567.0899999999999 C 237.34999999999994 561.0899999999999 231.93999999999994 551.8199999999999 231.12999999999994 542.2499999999999 C 230.45999999999995 534.2399999999999 232.66999999999993 525.5999999999999 238.09999999999994 519.4699999999999 C 242.71999999999994 514.2599999999999 248.70999999999992 511.6599999999999 255.59999999999994 511.19999999999993 z" stroke-linecap="round" />
</g>
		<g transform="matrix(1 0 0 1 -259.71 209.69)" id="svg_5"  >
<path style="stroke: none; stroke-width: 1; stroke-dasharray: none; stroke-linecap: butt; stroke-dashoffset: 0; stroke-linejoin: miter; stroke-miterlimit: 4; fill: rgb(128,128,128); fill-rule: nonzero; opacity: 1;" vector-effect="non-scaling-stroke"  transform=" translate(-251.34, -726.74)" d="M 210.64 682.16 C 212.58999999999997 682.0699999999999 214.5 682.38 216.42 682.74 C 228.85 685.11 241.17 688.66 253.54 691.45 C 262.7 693.5200000000001 284.69 696.7700000000001 292.25 700.5200000000001 C 294.84 701.82 296.43 704.2 297.99 706.5100000000001 C 299.36 717.9000000000001 298.33 729.4000000000001 298.38 740.8300000000002 C 298.42 747.6000000000001 299.27 754.6400000000001 298.53 761.3600000000001 C 298.02 765.9400000000002 296.32 768.3000000000002 292.78 771.2000000000002 C 290.84 771.3900000000002 289.09999999999997 771.3700000000001 287.15999999999997 771.1100000000001 C 275.84999999999997 769.6100000000001 264.52 765.9400000000002 253.41999999999996 763.3200000000002 C 240.61999999999995 760.2900000000002 227.29999999999995 758.0300000000002 214.82999999999996 753.8800000000001 C 212.18999999999997 753.0000000000001 208.35999999999996 751.9100000000001 206.76999999999995 749.5500000000001 C 202.94999999999996 743.9100000000001 203.42999999999995 696.2900000000001 205.06999999999996 688.3600000000001 C 205.72999999999996 685.1700000000001 207.99999999999997 683.7600000000001 210.62999999999997 682.1700000000001 L 210.63999999999996 682.1600000000001 z M 222.35 737.76 C 230.94 739.4 277.39 751.39 280.53999999999996 750.72 C 279.41999999999996 746.47 280.84999999999997 722.27 280.78 715.87 C 261.51 711.4 241.84999999999997 707.68 222.7 702.77 C 221.13 714.03 222.20999999999998 726.39 222.35 737.76 z" stroke-linecap="round" />
</g>
		<g transform="matrix(1 0 0 1 37.98 65.59)" id="svg_6"  >
<path style="stroke: none; stroke-width: 1; stroke-dasharray: none; stroke-linecap: butt; stroke-dashoffset: 0; stroke-linejoin: miter; stroke-miterlimit: 4; fill: rgb(128,128,128); fill-rule: nonzero; opacity: 1;" vector-effect="non-scaling-stroke"  transform=" translate(-549.03, -582.64)" d="M 543.51 550.02 C 561.87 546.99 579.21 559.3199999999999 582.12 577.47 C 585.03 595.63 572.39 612.63 553.98 615.35 C 535.8000000000001 618.03 518.82 605.74 515.94 587.82 C 513.0600000000001 569.9000000000001 525.37 553.0400000000001 543.5100000000001 550.0300000000001 L 543.5100000000001 550.0200000000001 z" stroke-linecap="round" />
</g>
		<g transform="matrix(1 0 0 1 119.68 64.74)" id="svg_7"  >
<path style="stroke: none; stroke-width: 1; stroke-dasharray: none; stroke-linecap: butt; stroke-dashoffset: 0; stroke-linejoin: miter; stroke-miterlimit: 4; fill: rgb(128,128,128); fill-rule: nonzero; opacity: 1;" vector-effect="non-scaling-stroke"  transform=" translate(-630.72, -581.79)" d="M 624.55 550.09 C 642.37 546.7 659.5799999999999 558.2800000000001 662.89 575.89 C 666.1999999999999 593.5 654.34 610.41 636.49 613.5699999999999 C 618.79 616.6999999999999 601.84 605.1199999999999 598.5600000000001 587.68 C 595.2800000000001 570.2299999999999 606.8900000000001 553.4399999999999 624.5500000000001 550.0899999999999 z" stroke-linecap="round" />
</g>
		<g transform="matrix(1 0 0 1 383.77 15.99)" id="svg_8"  >
<path style="stroke: none; stroke-width: 1; stroke-dasharray: none; stroke-linecap: butt; stroke-dashoffset: 0; stroke-linejoin: miter; stroke-miterlimit: 4; fill: rgb(128,128,128); fill-rule: nonzero; opacity: 1;" vector-effect="non-scaling-stroke"  transform=" translate(-894.81, -533.03)" d="M 900.53 500.45 C 903.55 500.44 906.3 501.3 908.5799999999999 503.28999999999996 C 913.6299999999999 507.7 914.8799999999999 515.37 915.2499999999999 521.7099999999999 C 915.9999999999999 534.4399999999999 912.9999999999999 549.54 903.9099999999999 559.16 C 900.2199999999998 563.0799999999999 895.7799999999999 565.37 890.3299999999998 565.62 C 887.5299999999999 565.09 885.1399999999998 564.19 882.8799999999998 562.43 C 877.5499999999997 558.3 875.3199999999998 551.9399999999999 874.5899999999998 545.4899999999999 C 873.2299999999998 533.43 876.1399999999998 519.2399999999999 884.0699999999998 509.6899999999999 C 888.4699999999998 504.39999999999986 893.6199999999998 501.21999999999986 900.5199999999999 500.4499999999999 L 900.5299999999999 500.4499999999999 z" stroke-linecap="round" />
</g>
		<g transform="matrix(1 0 0 1 437.11 -8.88)" id="svg_9"  >
<path style="stroke: none; stroke-width: 1; stroke-dasharray: none; stroke-linecap: butt; stroke-dashoffset: 0; stroke-linejoin: miter; stroke-miterlimit: 4; fill: rgb(128,128,128); fill-rule: nonzero; opacity: 1;" vector-effect="non-scaling-stroke"  transform=" translate(-948.16, -508.17)" d="M 952.52 473.77 C 954.3299999999999 473.72999999999996 956.53 474.08 958.14 474.91999999999996 C 961.9399999999999 476.9 963.96 481.12999999999994 965.05 485.03 C 969.14 499.77 966.39 518.8199999999999 958.4499999999999 531.92 C 955.0699999999999 537.51 950.93 540.99 944.5099999999999 542.5699999999999 C 942.5099999999999 542.41 940.5999999999999 542.1199999999999 938.8299999999999 541.14 C 934.81 538.93 932.3799999999999 534.9499999999999 931.0899999999999 530.6999999999999 C 927.1399999999999 517.53 930.4499999999999 500.60999999999996 936.8199999999999 488.67999999999995 C 940.28 482.19999999999993 945.2099999999999 476.03999999999996 952.53 473.7699999999999 L 952.52 473.7699999999999 z" stroke-linecap="round" />
</g>
</g>
</g>
</svg>
