<?xml version="1.0"?>
<svg width="1024" height="1024" xmlns="http://www.w3.org/2000/svg" xmlns:svg="http://www.w3.org/2000/svg">
 <g class="layer">
  <title>Layer 1</title>
  <path d="m493.08,139.79c0.43,-0.07 0.86,-0.1 1.3,-0.12c31.51,-2.03 62.94,4.12 93.89,9.16l105.57,17.54l121.04,19.11c32.23,4.99 65.27,8.9 96.66,17.87c18.62,5.31 37.31,13.71 51.92,26.49c26.1,22.85 34.91,54.89 36.99,88.17c0.82,13.2 0.76,26.64 0.82,39.86c0.08,18.68 1.28,39.45 -3.64,57.57c-2.67,9.83 -6.88,17.78 -13.72,25.38c10.38,15.36 10.29,32.8 11.22,50.66c3.05,4.42 6.51,8.57 9.54,13.02c10.2,15.01 16.4,31.67 16.81,49.83c0.31,13.82 -3.76,26.81 -3.91,40.51c-0.25,23.46 0,46.78 -1.07,70.22c-2.01,43.75 -6.06,71 -38.54,104.07c-83.28,84.84 -278.24,114.79 -395.37,123.02c-24.46,1.72 -48.92,2.23 -73.44,2.67c-4.63,-0.68 -9.87,-0.33 -14.59,-0.43c-8.75,-0.12 -17.49,-0.58 -26.2,-1.34c-45.56,-4.11 -88.98,-13.41 -131.31,-30.6c-22.51,4.93 -51.11,5.53 -71.53,-6.12c-9.12,-5.21 -17,-12.3 -25.99,-17.76c-6.28,1.82 -12.68,3.24 -19.14,4.25c-35.78,5.69 -70.37,-2.95 -99.69,-24.06c-23.81,-17.16 -43.01,-42.79 -49.56,-71.45c-2.18,-9.58 -2.62,-19.97 -8.31,-28.38c-4.92,-7.24 -12.04,-12.25 -19.04,-17.34c-19.65,-14.27 -35.37,-28.91 -39.25,-53.78c-2.18,-13.98 -1.8,-28.55 -2.3,-42.69c-0.72,-20.03 -3.98,-50.6 1.36,-69.41c2.91,-10.26 9.01,-19.07 16.26,-26.82c4.68,-4.98 9.74,-9.6 15.14,-13.8c6.84,-5.29 15.51,-9.84 20.61,-16.83c0.16,-0.21 0.3,-0.42 0.45,-0.63c1.39,-22.05 -15.66,-60.95 -22.39,-83.68c-3.4,-11.75 -5.63,-23.79 -6.66,-35.95c-3.14,-35.89 4.8,-72.98 28.82,-100.98c7.77,-9.06 17.05,-15.13 26.01,-22.78c3.12,-2.66 5.66,-6.16 9,-8.55c2.38,-1.7 5.32,-2.96 8.02,-4.08c21.7,-9.03 49.52,-13.06 72.65,-17.81l101.47,-21.03c27.29,-5.44 54.5,-11.27 81.63,-17.5c46.24,-10.62 91.02,-21.47 138.48,-25.47l-0.01,-0.01zm-401.53,109.98c-26.34,20.43 -41.96,42.1 -45.96,75.55c-3.69,30.85 4.04,60.44 13.74,89.48c4.64,13.84 9.62,27.59 12.57,41.91c6.18,30.05 0.12,76.76 19.55,100.91c13.88,17.26 38.38,29.25 58.43,38.34c70.92,32.15 152.71,51.06 230.17,59.44c27.02,2.93 54.11,4.1 81.28,4.83c11.92,0.32 25,-1.16 36.71,0.61c16.97,2.57 35.84,13.14 53.46,16.93c-13.76,-0.12 -27.48,0.38 -41.23,0.5c-27.77,0.29 -55.55,-0.09 -83.29,-1.11c-29.22,-1.32 -58.66,-4.87 -87.56,-9.31c-64.76,-9.97 -129.72,-25.25 -189.52,-52.31c-23.12,-10.45 -48.92,-21.42 -66.95,-39.56c-20.35,-20.48 -22.85,-48.37 -23.64,-75.59c-14.21,9.01 -34.66,22.88 -38.51,40.33c-1.89,8.57 1.29,16.65 6.12,23.64c10.68,15.46 27.82,25.69 44.16,34.45c5.65,3.02 11.58,5.81 16.94,9.31c-5.58,3.68 -10.97,7.86 -16.64,11.36c-16.46,-6.13 -38.6,-23.93 -51.74,-35.64c0.15,10.03 0.57,20.05 0.71,30.08c0.27,21.65 -0.62,42.32 16.25,58.5c13.22,12.69 31.35,21.13 41.52,36.7c9.37,14.32 8.69,31.46 14.32,47.1c15.18,42.22 64.35,71.29 108.83,70.45c6.49,-0.17 12.95,-1.08 19.23,-2.69c7.66,-2 15.57,-6.4 23.61,-5.72c7.32,0.61 12.96,6.2 19.45,9.07c9.05,4.01 18.32,7.45 28.02,9.57c13.8,3 28.22,1.91 41.88,5.04c9.46,2.16 18.01,7.18 27.03,10.55c12.3,4.6 25.44,7.96 38.16,11.17c37.24,9.41 76.72,12.77 115.09,12.57c14.07,-0.07 28.28,-1.37 42.32,-1.21c113.56,-5.53 259.81,-26.35 358.69,-82.58c20.08,-11.43 39.71,-24.72 55.38,-41.74c8.03,-8.72 14.94,-18.8 19.34,-29.78c11.35,-28.31 9.67,-76.12 11.06,-107.31c-14.09,14.52 -29.83,26.97 -47.65,36.78c-5.17,2.84 -10.59,5.09 -15.78,7.84l0.11,32.52c0.03,6.15 0.61,12.75 -0.28,18.84c-0.27,1.88 -0.93,3.38 -1.82,5.07c-9.47,6.44 -60.23,33.85 -69.14,32.87c-1.92,-0.22 -3.65,-1.55 -4.67,-3.11c-3.21,-4.94 -1.31,-46.99 -1.57,-56.01c-54.68,13.98 -108.03,25.3 -164.1,32.58c-18.21,2.36 -36.85,5.11 -55.2,5.58c-0.02,13.93 2.57,36.82 -1.77,49.63l-0.58,0.53c-2.53,2.23 -4.44,3.34 -7.77,3.98c-9.27,1.8 -26.07,1.42 -36.02,1.84c-15.03,0.63 -30.89,2.56 -45.88,1.54c-2.64,-0.19 -3.75,-0.32 -5.46,-2.38c-1.35,-1.62 -2.15,-3.79 -2.48,-5.83c-1.12,-6.99 -0.84,-45.6 0.29,-52.64c0.37,-2.33 0.86,-5.21 2.84,-6.75c2.38,-1.85 6.27,-2.31 9.22,-2.62c11.8,-1.23 23.91,-0.94 35.78,-1.52c24.58,-1.21 49.14,-2.97 73.64,-5.29c88.99,-9.22 233.02,-34.07 304.32,-87.56c16.62,-12.47 32.08,-28.19 36.26,-49.09c5.26,-26.24 -6.59,-36.28 -10.75,-59.18c-2.74,23.33 -8.95,39.05 -28.12,54.05c-20.24,15.83 -46.62,21.83 -70.16,31.07c-9.69,3.81 -19.01,8.65 -28.64,12.66c-15,6.26 -30.56,11.55 -46.11,16.31c-63.69,19.45 -130.4,25.68 -196.81,26.69c-23.53,0.35 -47.43,0.5 -70.83,-2.25c-21.09,-2.48 -41.28,-10.89 -54.69,-27.67c-10.4,-13.21 -15,-29.98 -12.77,-46.57c2.03,-15.72 11.4,-30.39 24.09,-39.92c8.66,-6.47 18.54,-10.89 29.36,-12.22c16.28,-2 33.43,-0.04 49.84,0.25c24.67,0.45 49.62,0.25 74.26,-1.16c32.99,-1.9 65.6,-6.54 98.1,-12.19c13.94,-2.42 27.93,-4.72 41.73,-7.77c13.51,-2.98 26.92,-6.94 40.2,-10.77c39.15,-11.33 98.46,-29.6 125.6,-61.12c8.66,-10.06 12.85,-21.93 14.76,-34.87c2.03,-13.81 1.29,-28.17 1.19,-42.1c-0.25,-33.26 1.49,-68.31 -20.08,-96.35c-10.14,-13.18 -24.21,-23.14 -39.54,-29.64c-4.37,17.65 -18.43,28.03 -33.54,37.06c-39.76,23.77 -90.99,36.46 -136.2,45.97c-68.5,14.4 -143.77,23.28 -213.77,22.42c-66.77,-0.81 -132.99,-10.9 -198.61,-22.37c-58.59,-10.19 -116.85,-22.2 -174.67,-36.04c-25.13,-6.14 -52.32,-12.34 -75.11,-24.93zm808.67,242.97c-8.89,1.47 -15.26,5.48 -20.46,12.76c-9.11,12.73 -12.29,30.36 -9.59,45.58c1.21,6.83 4.09,13.53 10.07,17.55c3.07,2.05 6.15,2.77 9.8,3.05c8.97,-1.84 14.99,-5.4 20.1,-12.99c8.87,-13.2 11.49,-32.68 8.13,-48.01c-1.27,-5.85 -3.74,-12.33 -8.98,-15.77c-2.9,-1.9 -5.66,-2.27 -9.07,-2.16l0,-0.01zm-342.14,238.75c-0.11,11.27 0.4,22.63 -0.11,33.9c3.98,-0.2 7.97,-0.31 11.94,-0.6c17.55,-0.29 35.24,-2.63 52.76,-2.32c-0.8,-11.15 -0.4,-22.7 0.04,-33.86l-10.32,0.33c-18.01,0.99 -36.28,2.49 -54.31,2.55zm319.17,-48.24c-0.08,7.93 -0.94,35.63 0.67,41.36c14.07,-6.61 27.54,-14.5 41.76,-20.79c0.06,-6.02 1.33,-32.62 -0.51,-36.56c-13.87,5.6 -27.73,11.26 -41.93,16l0.01,-0.01zm62.25,-132.85c7.79,-0.65 13.39,-3.26 18.46,-9.3c11.51,-13.7 14.33,-37.88 12.51,-54.94c-0.62,-5.81 -2.23,-13.46 -6.92,-17.39c-1.84,-1.55 -3.72,-2.11 -6.11,-2.03c-0.07,0 -0.13,0.02 -0.21,0.03c-8.39,0.8 -14.88,4.66 -20.2,11.02c-10.77,12.87 -14.24,33.65 -12.56,49.85c0.76,7.3 3.05,15.47 9.25,20.1c1.76,1.32 3.68,2.04 5.77,2.66l0.01,0zm-62.71,33.81c-10.89,-6.83 -17.4,-14.61 -20.19,-27.28c-2.56,-11.61 -1.26,-25.31 2.17,-36.66c1.19,-3.97 6.63,-13.28 6.21,-16.5l-0.58,-0.11c-15.05,4.88 -30.47,8.81 -45.8,12.7c-47.35,12.51 -95.8,20.56 -144.69,24.03c10.43,11.54 14.26,26.88 13.45,42.12c-0.89,16.01 -8.23,30.99 -20.41,41.6c-3.14,2.77 -6.56,5.28 -10,7.69c3.75,-0.14 7.49,-0.34 11.23,-0.61c9.77,-0.88 19.59,-1.77 29.39,-2.35c7.58,-0.44 15.22,-0.54 22.75,-1.43c44.83,-5.31 116.24,-22.81 156.46,-43.21l0.01,0.01zm-248.17,-41.96c-22.01,1.24 -38.85,19.85 -37.6,41.58c1.25,21.73 20.08,38.35 42.1,37.14c22.04,-1.21 38.9,-19.83 37.66,-41.59c-1.24,-21.75 -20.13,-38.39 -42.16,-37.13zm-85.06,0.41c-22.35,2.97 -38.02,23.27 -35,45.31c3.02,22.06 23.61,37.51 45.95,34.51c22.32,-2.99 37.95,-23.28 34.93,-45.3c-3.02,-22.04 -23.55,-37.48 -45.88,-34.52zm362.33,-320.41c-18.03,-6.33 -37.49,-8.66 -56.29,-11.73l-63.43,-10.65l-152.54,-24.82c-29.56,-4.76 -59.22,-10.47 -88.95,-14.08c-13.1,-1.59 -34.55,-4.15 -47.38,-2.33c-62.86,4.3 -131.22,23.7 -193.19,36.69l-113.49,23.88c-26.11,5.49 -52.37,10.3 -77.94,17.92c27.38,12.61 66.11,20.97 95.83,27.97c80.85,19.38 162.78,34.05 245.37,43.96c14.59,1.71 29.36,3.26 44.01,4.11c8.81,0.51 17.67,0.27 26.44,1.25c13.17,1.71 36.73,0.29 50.6,-0.28c21.28,-0.85 42.46,-1.98 63.65,-4.28c66.99,-7.24 200.76,-29.66 252.55,-69.08c6.73,-5.12 11.66,-10.63 14.77,-18.54l-0.01,0.01z" fill="#ffffff" id="svg_1" marker-end="url(#mkr_end_svg_1)"/>
  <path d="m160.59,461.15c5.13,-0.49 10.84,0.96 15.78,2.16c19.09,4.61 37.71,11.42 56.56,16.96c16,4.71 35.14,8.52 50.19,15.13c13.85,5.97 24.65,17.24 29.94,31.21c5.8,15.39 5.13,32.42 -1.85,47.32c-5.95,12.74 -15.88,19.43 -28.9,24.09c-0.95,0.24 -1.91,0.45 -2.86,0.65c-7.22,1.46 -14.66,0.89 -21.86,-0.42c-15.62,-2.84 -30.41,-8.7 -45.51,-13.39c-19.18,-5.95 -41.89,-9.63 -58.77,-20.71c-14.76,-9.67 -23.64,-25.52 -27.07,-42.41c-2.92,-14.38 -1.65,-32.11 6.93,-44.53c6.57,-9.5 16.24,-14.01 27.41,-16.07l0.01,0.01zm32.95,98.49c8.06,-1.78 14.75,-4.77 19.43,-11.87c6,-9.1 6.95,-21.67 4.55,-32.06c-2.65,-11.62 -9.92,-21.69 -20.18,-27.94c-7.49,-4.54 -15.51,-6.35 -24.26,-5.59c-8.49,2.45 -15.53,7.21 -19.99,14.92c-5.33,9.22 -5.89,21.68 -2.98,31.72c3.2,11.02 10.18,20.85 20.47,26.4c7.29,3.94 14.75,4.97 22.96,4.41l0,0.01zm74.15,21.11c9.23,-2.83 16.73,-7.23 21.48,-15.98c5.31,-9.79 5.87,-22.01 2.54,-32.51c-3.27,-10.32 -10.1,-19.58 -19.95,-24.59c-6.11,-3.11 -13.01,-4.44 -19.87,-3.84c-8.24,1.31 -15.27,4.7 -20.25,11.55c-6.86,9.46 -8.27,22.82 -6.24,34.03c1.86,10.25 8.13,19.02 16.84,24.82c7.86,5.23 16.08,6.75 25.45,6.52z" fill="#ffffff" id="svg_2"/>
  <path d="m173.21,490.5c6.27,-0.86 12.59,-0.04 18.31,2.67c8.77,4.17 15.45,12.69 18.47,21.73c2.73,8.11 2.7,18.13 -1.43,25.77c-3.32,6.16 -8.61,9.74 -15.24,11.69c-6.38,0.68 -12.16,0.03 -17.98,-2.79c-8.3,-4.03 -14.33,-11.66 -17.14,-20.28c-2.88,-8.86 -2.96,-19.8 1.54,-28.15c3.04,-5.66 7.45,-8.68 13.47,-10.63l0,-0.01z" fill="#ffffff" id="svg_3"/>
  <path d="m255.6,511.2c6.58,0.2 13.16,2.78 18.28,6.82c7.23,5.7 11.88,14.48 12.89,23.52c0.94,8.37 -1.31,17.31 -6.86,23.81c-4.39,5.13 -10.25,7.87 -16.97,8.42c-6.81,-0.22 -12.81,-2.44 -18.1,-6.68c-7.49,-6 -12.9,-15.27 -13.71,-24.84c-0.67,-8.01 1.54,-16.65 6.97,-22.78c4.62,-5.21 10.61,-7.81 17.5,-8.27z" fill="#ffffff" id="svg_4"/>
  <path d="m210.64,682.16c1.95,-0.09 3.86,0.22 5.78,0.58c12.43,2.37 24.75,5.92 37.12,8.71c9.16,2.07 31.15,5.32 38.71,9.07c2.59,1.3 4.18,3.68 5.74,5.99c1.37,11.39 0.34,22.89 0.39,34.32c0.04,6.77 0.89,13.81 0.15,20.53c-0.51,4.58 -2.21,6.94 -5.75,9.84c-1.94,0.19 -3.68,0.17 -5.62,-0.09c-11.31,-1.5 -22.64,-5.17 -33.74,-7.79c-12.8,-3.03 -26.12,-5.29 -38.59,-9.44c-2.64,-0.88 -6.47,-1.97 -8.06,-4.33c-3.82,-5.64 -3.34,-53.26 -1.7,-61.19c0.66,-3.19 2.93,-4.6 5.56,-6.19l0.01,-0.01zm11.71,55.6c8.59,1.64 55.04,13.63 58.19,12.96c-1.12,-4.25 0.31,-28.45 0.24,-34.85c-19.27,-4.47 -38.93,-8.19 -58.08,-13.1c-1.57,11.26 -0.49,23.62 -0.35,34.99z" fill="#ffffff" id="svg_5"/>
  <path d="m543.51,550.02c18.36,-3.03 35.7,9.3 38.61,27.45c2.91,18.16 -9.73,35.16 -28.14,37.88c-18.18,2.68 -35.16,-9.61 -38.04,-27.53c-2.88,-17.92 9.43,-34.78 27.57,-37.79l0,-0.01z" fill="#ffffff" id="svg_6"/>
  <path d="m624.55,550.09c17.82,-3.39 35.03,8.19 38.34,25.8c3.31,17.61 -8.55,34.52 -26.4,37.68c-17.7,3.13 -34.65,-8.45 -37.93,-25.89c-3.28,-17.45 8.33,-34.24 25.99,-37.59z" fill="#ffffff" id="svg_7"/>
  <path d="m900.53,500.45c3.02,-0.01 5.77,0.85 8.05,2.84c5.05,4.41 6.3,12.08 6.67,18.42c0.75,12.73 -2.25,27.83 -11.34,37.45c-3.69,3.92 -8.13,6.21 -13.58,6.46c-2.8,-0.53 -5.19,-1.43 -7.45,-3.19c-5.33,-4.13 -7.56,-10.49 -8.29,-16.94c-1.36,-12.06 1.55,-26.25 9.48,-35.8c4.4,-5.29 9.55,-8.47 16.45,-9.24l0.01,0z" fill="#ffffff" id="svg_8"/>
  <path d="m952.52,473.77c1.81,-0.04 4.01,0.31 5.62,1.15c3.8,1.98 5.82,6.21 6.91,10.11c4.09,14.74 1.34,33.79 -6.6,46.89c-3.38,5.59 -7.52,9.07 -13.94,10.65c-2,-0.16 -3.91,-0.45 -5.68,-1.43c-4.02,-2.21 -6.45,-6.19 -7.74,-10.44c-3.95,-13.17 -0.64,-30.09 5.73,-42.02c3.46,-6.48 8.39,-12.64 15.71,-14.91l-0.01,0z" fill="#ffffff" id="svg_9"/>
 </g>
 <defs>
  <marker id="mkr_end_svg_1" markerHeight="5" markerUnits="strokeWidth" markerWidth="5" orient="auto" refX="50" refY="50" se_type="box_o" viewBox="0 0 100 100">
   <path d="m20,20l0,60l60,0l0,-60l-60,0z" fill="none" id="svg_10" stroke-width="10"/>
  </marker>
 </defs>
</svg>
